<svg width="45" height="44" viewBox="0 0 45 44" fill="none" xmlns="http://www.w3.org/2000/svg">
<path d="M1.65723 14.4805C1.65723 14.7215 1.71437 14.9879 1.62548 15.1909C-0.165001 19.3643 -0.190398 23.7089 1.21913 27.8696C3.80962 35.525 8.84457 40.9669 16.9081 42.9902C29.1812 46.0663 40.832 38.5631 43.5305 27.007C46.2099 15.5397 39.4416 4.17392 28.1463 1.0851C18.9018 -1.45191 9.51759 2.12528 3.962 10.2818C3.75248 10.5926 3.51756 10.8907 3.29533 11.2014C4.05724 9.99636 4.66677 8.6454 5.61281 7.60522C11.3652 1.30709 18.4637 -1.15381 26.8828 0.501591C42.2733 3.52063 49.5496 21.5905 40.5844 34.4595C31.1495 48.0008 10.9208 46.9416 2.87629 32.525C0.171509 27.6793 -0.67929 22.618 0.552463 17.2268C0.768337 16.2755 1.27628 15.3939 1.65088 14.4805H1.65723Z" fill="white"/>
<path d="M43.3017 22.0086C43.3716 32.8924 34.6794 42.7677 22.4699 42.8311C10.2857 42.8945 1.33958 33.3807 1.29514 22.1101C1.24434 10.6935 10.2476 1.17972 22.2857 1.15435C33.9937 1.12898 43.3017 10.3954 43.2954 22.0086H43.3017ZM22.146 35.5245C29.6762 35.5626 35.9493 29.5625 36.0001 22.275C36.0572 14.5434 30.0953 8.56877 22.2794 8.50534C14.8635 8.44826 8.76184 14.4673 8.71105 21.8881C8.66026 29.3596 14.7047 35.4928 22.146 35.5309V35.5245ZM10.019 14.0614C11.1111 12.8373 12.2031 11.702 13.1936 10.4842C13.9873 9.50746 13.5682 8.52437 12.3428 8.1565C12.0825 8.08039 11.8476 7.77595 11.6952 7.52225C11.1238 6.57721 10.038 6.29814 9.26978 7.0529C8.20311 8.09942 7.23168 9.24742 6.1523 10.4208C7.4793 11.6703 8.72375 12.8373 10.019 14.0551V14.0614ZM33.6318 5.63217C32.6286 7.15438 31.6763 8.59414 30.7874 9.95144C31.4223 11.1755 32.1842 11.1882 33.1112 10.5413C33.4413 10.313 33.854 10.1988 34.4763 9.92607C33.981 10.9789 33.6255 11.7464 33.2572 12.5265C33.6826 12.9197 34.0572 13.2622 34.4382 13.6174C35.9049 12.6597 37.308 11.74 38.7747 10.776C38.4382 10.3383 38.1461 9.97046 37.8414 9.57723C36.9969 10.1481 36.2287 10.6745 35.2255 11.3595C35.6382 10.4335 35.9302 9.78653 36.1842 9.20936C35.308 7.33832 34.1715 8.90492 33.0667 8.98737C33.6318 8.09942 34.1207 7.33197 34.6223 6.53916C34.2731 6.22203 34.0001 5.97467 33.6318 5.63852V5.63217ZM22.2349 5.24528C21.8349 4.33196 21.4857 3.58988 21.181 2.82878C20.8762 2.06767 20.254 2.37846 19.7651 2.43554C19.5111 2.46725 19.1048 2.77804 19.0984 2.97465C19.0413 4.54126 19.0667 6.11421 19.0667 7.71887H20.3429V4.47149C20.8571 5.03598 21.1619 5.63852 21.4921 6.22837C21.9429 7.03387 22.5397 7.04656 22.9905 6.2474C23.3016 5.6956 23.581 5.12477 23.8794 4.56663C23.9492 4.58566 24.0254 4.60468 24.0953 4.61737V7.70618H25.4223C25.4223 6.17763 25.454 4.70616 25.3905 3.2347C25.3778 2.94928 25.0223 2.49896 24.7619 2.44822C24.2603 2.35309 23.6 2.00425 23.2826 2.85415C22.9968 3.61525 22.6349 4.34464 22.2349 5.23894V5.24528Z" fill="white"/>
<path d="M22.3613 22.1104H35.0535C36.4503 27.7108 28.8439 35.2965 22.3613 34.7066V22.1104Z" fill="white"/>
<path d="M22.1651 9.30527V21.9079H9.58723C9.07929 15.7556 14.965 9.0262 22.1651 9.30527Z" fill="white"/>
<path d="M8.62908 10.7829C8.37511 10.5418 8.16559 10.3452 7.91797 10.1106C8.55924 9.40019 9.13702 8.72154 9.77195 8.09363C9.91798 7.95409 10.2354 7.9858 10.4767 7.94141C10.4704 8.20779 10.5656 8.55029 10.4323 8.72154C9.88623 9.42556 9.26401 10.0725 8.62908 10.7892V10.7829Z" fill="white"/>
<path d="M10.069 12.3117C9.8087 12.0453 9.59918 11.836 9.37695 11.6077C10.0119 10.91 10.5579 10.2504 11.1674 9.67319C11.3516 9.50194 11.7325 9.54 12.0309 9.48926C11.9801 9.7493 12.0055 10.0791 11.8595 10.2694C11.3135 10.9544 10.7103 11.595 10.069 12.318V12.3117Z" fill="white"/>
</svg>
