<svg width="118" height="42" viewBox="0 0 118 42" fill="none" xmlns="http://www.w3.org/2000/svg">
<path d="M60.6457 41.9991C46.3226 42.0382 33.796 40.7774 21.6014 37.2294C17.5104 36.037 13.4976 34.3657 9.69963 32.4304C6.51673 30.808 3.65602 28.5404 1.6545 25.403C-0.327494 22.3046 -0.347021 19.304 1.71308 16.2057C3.74389 13.1464 6.66318 11.133 9.8168 9.45188C15.5577 6.39264 21.7088 4.52581 28.055 3.14769C40.3083 0.489174 52.7079 -0.351386 65.1954 0.127538C78.1126 0.626009 90.854 2.29735 102.97 7.155C106.847 8.70906 110.625 10.439 113.818 13.3028C118.934 17.8966 119.207 23.3407 114.374 28.1983C110.791 31.8049 106.261 33.8379 101.594 35.3724C96.3996 37.0828 91.0102 38.2264 85.6793 39.5165C76.9117 41.657 67.9488 41.8525 60.6359 41.9893L60.6457 41.9991ZM59.1323 40.3082C62.7936 40.3082 66.4549 40.5037 70.0967 40.2691C80.3094 39.6045 90.4146 38.1971 100.08 34.5807C104.591 32.8898 109.073 31.1109 112.714 27.7683C116.942 23.8978 117.186 19.0499 113.33 14.9057C110.811 12.1886 107.589 10.6052 104.298 9.13912C94.5446 4.78971 84.1757 2.9913 73.6409 1.99436C62.8913 0.987645 52.1416 1.07561 41.4018 2.30713C33.0247 3.26497 24.7354 4.69197 16.8172 7.70235C12.3944 9.38346 8.157 11.4262 4.72024 14.8373C0.189972 19.3822 1.66426 25.4421 6.10666 28.6772C11.0958 32.3034 16.7196 34.6393 22.6363 36.2227C34.5868 39.4286 46.7815 40.6992 59.1323 40.3082Z" fill="white"/>
<path d="M58.9478 39.1252C46.1674 38.9101 33.5432 37.6884 21.2607 34.0134C15.8224 32.3811 10.4915 30.3482 6.30297 26.2724C2.64165 22.7147 2.71976 19.0495 6.47871 15.5504C10.1303 12.1588 14.5922 10.2041 19.2591 8.68909C33.9044 3.91941 49.0086 2.70744 64.2885 3.14726C74.384 3.43071 84.3525 4.65245 94.1258 7.30119C99.154 8.66954 104.036 10.4777 108.439 13.234C110.431 14.4753 112.091 16.3812 113.594 18.2382C115.039 20.0269 114.756 22.92 112.852 24.9823C111.3 26.6536 109.435 28.1686 107.453 29.273C104.553 30.8857 101.507 32.3714 98.3534 33.3879C90.4449 35.9389 82.3315 37.6395 74.0227 38.2651C69.0043 38.6365 63.9761 38.8515 58.9478 39.1252ZM66.4462 26.5754C67.2175 27.4257 67.7448 28.2663 68.5063 28.7941C70.1856 29.9572 71.7088 28.755 73.2416 28.0904C73.886 33.9938 75.9754 34.8051 81.3844 31.4037C82.517 33.7593 83.9717 34.3946 86.1783 32.9383C88.2774 31.5601 90.1032 29.7519 91.9778 28.0611C92.2707 27.7972 92.1829 27.1228 92.2707 26.6438C91.7923 26.7513 91.187 26.7025 90.8453 26.9761C89.4881 28.0708 88.2677 29.3317 86.8813 30.397C86.4224 30.7489 85.6413 30.6902 85.0067 30.8173C85.1043 30.2015 85.0067 29.4685 85.3191 28.97C87.4768 25.4416 89.7225 21.9719 91.929 18.4826C92.7882 17.1338 93.6279 15.7752 94.5066 14.3678C92.1633 13.7324 90.6695 14.2309 89.5662 16.2834C88.4239 18.4044 86.9301 20.3299 85.5632 22.3726C83.5421 20.0562 82.1948 19.6164 79.9785 20.6231C78.9826 21.0825 78.0257 21.6787 77.147 22.3433C75.497 23.5748 73.9446 24.9432 72.275 26.1551C71.3377 26.8393 70.1368 27.2791 69.3167 26.0965C68.5161 24.9529 68.9262 23.8192 69.6682 23.1643C70.4004 23.7801 71.0351 24.7281 71.6404 24.7086C72.4313 24.6793 73.515 24.044 73.8567 23.3598C74.1887 22.6952 74.0422 21.4148 73.5736 20.799C72.7242 19.6848 71.3475 19.5968 70.1271 20.3201C69.1995 20.8674 68.3794 21.62 67.5007 22.2847C66.5146 19.1863 64.7571 18.6683 62.1991 20.7404C61.1153 21.62 60.139 22.6365 58.9869 23.7019C58.8795 23.1252 58.8404 22.7147 58.733 22.314C58.489 21.4343 58.4206 20.2321 57.1123 20.4472C55.8919 20.6524 55.7161 21.493 56.009 22.7343C56.6534 25.4123 55.2768 28.6377 53.0312 29.7031C52.2305 30.0843 51.0003 30.1722 50.2486 29.8106C49.7213 29.5565 49.5163 28.3054 49.487 27.4844C49.4577 26.8002 49.7116 25.9206 50.1704 25.4514C51.3714 24.2297 52.7675 23.2034 54.0466 22.0599C54.3785 21.7666 54.564 21.3073 54.8179 20.9261C54.3492 20.6622 53.9099 20.3299 53.4022 20.1637C53.1483 20.0757 52.7968 20.281 52.4942 20.369C49.3503 21.317 47.2804 23.4282 45.8647 26.3506C45.2789 27.5528 44.4686 28.6866 43.5508 29.664C42.6428 30.6316 42.7111 31.218 43.8535 31.8924C44.615 31.2669 45.3375 30.6805 46.0795 30.0745C48.0029 33.6713 50.6098 34.5021 53.9489 32.1857C55.7161 30.9541 56.9951 29.0189 58.5085 27.416C59.8851 25.9597 61.2618 24.4838 62.7166 23.1154C63.0583 22.7929 63.7417 22.8515 64.269 22.7245C64.2201 23.2523 64.2885 23.8289 64.0835 24.2981C63.7515 25.0702 63.2536 25.774 62.8142 26.4972C61.5254 28.5986 60.2366 30.7 58.9283 32.8405C61.5059 33.5638 62.1991 33.2999 63.4195 31.3549C64.4545 29.7031 65.5187 28.0806 66.4658 26.6145L66.4462 26.5754ZM42.4377 18.8149C42.5256 18.942 42.6232 19.069 42.7111 19.1961C40.6217 22.4117 38.0149 25.1875 35.0663 27.6017C34.1485 28.3543 32.7426 28.6084 31.5124 28.843C30.0185 29.1264 28.7005 28.4227 28.0463 27.1228C27.4605 25.9597 27.5874 24.6109 28.5443 23.5553C29.1105 22.9297 29.794 22.4313 30.3798 21.8253C30.741 21.4539 31.0242 20.9945 31.3366 20.5644C30.7313 20.3885 30.0869 19.978 29.5401 20.0855C27.1481 20.5449 25.4297 21.9035 24.5119 24.2199C23.3012 27.2694 24.1604 31.7067 28.5833 32.7037C32.0689 33.4856 35.203 32.8014 37.5365 30.3579C40.2898 27.4746 42.7502 24.2297 44.9079 20.8674C46.1479 18.9322 47.4269 17.9743 49.6725 18.0428C50.9711 18.0819 52.2891 17.642 53.3631 18.8442C53.6072 19.1179 54.2711 19.0104 54.7495 19.0788C54.7788 18.9517 54.8179 18.8149 54.8472 18.6878C54.5543 18.3458 54.2614 18.0037 53.8903 17.5638C55.4623 16.821 56.38 15.697 55.8723 14.0061C55.7454 13.5761 54.9253 13.0776 54.4273 13.0776C52.1915 13.0678 51.8693 14.8662 51.5569 16.5864H47.9639L47.6807 16.1271C49.5944 14.3384 51.5666 12.6084 53.3826 10.7221C54.3004 9.78377 55.1205 9.78377 56.2922 10.0672C59.8851 10.9371 63.4879 11.8656 67.1394 12.3543C70.3028 12.7746 73.5443 12.5498 76.0438 10.077C76.5124 9.61762 76.6882 8.84548 77.0006 8.22972C76.3074 8.10266 75.6142 7.83876 74.9307 7.88763C72.0895 8.08311 69.2288 8.72819 66.4169 8.55226C61.6719 8.24926 56.9463 7.51622 52.2305 6.83204C47.4367 6.13809 42.6428 5.48324 37.927 7.11549C35.037 8.11243 32.5668 9.70558 31.7076 12.9408C30.8094 16.3421 33.3381 19.0495 36.7554 18.3262C39.6063 17.7202 41.2661 15.7068 42.4475 13.234C42.633 12.843 42.4963 12.2859 42.5158 11.807C42.096 12.022 41.6567 12.2175 41.2661 12.4716C40.0554 13.2633 38.9229 14.2016 37.6243 14.8076C37.1362 15.0422 35.9548 14.7098 35.6814 14.2798C35.3104 13.6738 35.1834 12.5303 35.5252 11.9536C36.1012 10.9469 36.9702 9.88151 37.9758 9.38304C42.6818 7.05684 47.4855 8.18085 52.6113 9.18756C49.3503 11.1912 47.0168 13.6054 45.0055 16.3714C44.6638 16.8503 43.9316 17.1045 43.3262 17.3195C41.8031 17.8766 40.2409 18.3262 38.7276 18.9126C38.4738 19.0104 38.3956 19.5479 38.2394 19.8803C38.6397 19.9487 39.0889 20.1735 39.4306 20.0562C40.4557 19.7141 41.4419 19.245 42.4475 18.8247L42.4377 18.8149Z" fill="white"/>
<path d="M76.9315 28.8435C76.9901 26.5173 79.4115 23.1257 81.5399 22.6566C82.0476 22.5393 83.1411 23.1355 83.2778 23.6144C83.9417 25.8722 80.9639 30.0554 78.6109 30.4073C77.3514 30.593 76.8241 30.0261 76.9315 28.8532V28.8435Z" fill="white"/>
</svg>
