<svg width="91" height="31" viewBox="0 0 91 31" fill="none" xmlns="http://www.w3.org/2000/svg">
<path d="M65.2828 27.6567C58.6618 32.2258 52.0522 32.0071 45.4483 27.6398C38.8842 32.1585 32.3258 32.0632 25.6935 27.6511C22.0613 30.2075 17.9851 31.4577 13.4478 30.813C9.53666 30.2524 6.25748 28.4584 3.7127 25.4702C-1.2687 19.6228 -1.23454 11.2358 3.79809 5.42209C8.32405 0.191417 17.1084 -2.54446 25.5739 3.23003C27.3843 2.37787 29.0353 1.36313 30.8286 0.802503C35.753 -0.744834 40.4156 0.000803056 44.674 2.90486C45.1978 3.26367 45.528 3.32534 46.1087 2.95532C50.8339 -0.0328347 55.8551 -0.935449 61.1952 1.13888C62.6184 1.6883 63.9278 2.51803 65.4251 3.2917C69.4102 0.359606 74.0443 -0.666346 79.0826 0.488551C82.7319 1.32389 85.6524 3.34216 87.9353 6.28546C92.3132 11.931 91.9546 20.2395 87.1553 25.7113C82.9653 30.4935 73.8906 33.7731 65.2828 27.6623V27.6567ZM67.8048 25.1058C72.2909 28.492 79.7487 28.7667 84.4853 23.4912C88.9202 18.552 88.5046 11.034 83.6371 6.63305C78.3938 1.89012 71.1067 3.10669 67.8275 5.94908C72.5869 12.3122 72.5527 18.7034 67.8048 25.1058ZM22.9779 5.89863C19.2148 2.67501 11.7569 2.16483 6.85525 7.16565C2.16419 11.9478 2.38053 19.8078 7.39039 24.3658C12.7077 29.1984 20.0061 27.8697 22.9551 25.0834C18.5373 18.6866 18.5601 12.2954 22.9779 5.90423V5.89863ZM48.1695 25.1282C51.7391 28.3799 59.1969 28.3743 62.7152 25.117C58.2917 18.6978 58.269 12.2786 62.7323 5.8706C58.5821 2.50682 51.9212 2.71986 48.1923 5.88181C52.5588 12.3122 52.6442 18.7202 48.1638 25.1282H48.1695ZM42.8409 25.1058C38.4401 18.6866 38.3889 12.2674 42.8693 5.8706C38.4686 2.32742 31.5402 2.92729 28.3293 5.91545C32.7471 12.3403 32.73 18.7314 28.3066 25.1282C32.5137 28.4976 38.907 28.3967 42.8409 25.1114V25.1058ZM45.4198 22.5718C49.2 18.3895 48.6876 11.7572 45.3913 8.48313C42.2488 11.9534 42.2374 18.894 45.4198 22.5718ZM25.7447 22.5605C28.9271 19.236 28.9328 11.9142 25.7561 8.44389C22.5281 12.3234 22.3858 18.4343 25.7447 22.5605ZM65.2998 8.4551C62.1744 12.0207 61.9637 18.6305 65.2771 22.5437C68.4139 19.0174 68.5904 12.3403 65.2998 8.4551Z" fill="#F8F9F4"/>
</svg>
