<svg width="66" height="42" viewBox="0 0 66 42" fill="none" xmlns="http://www.w3.org/2000/svg">
<path d="M33.3395 42C25.2754 41.6594 19.2205 40.9875 13.5065 38.5853C7.82013 36.1922 3.16599 32.6118 1.00021 26.6107C-1.62639 19.321 1.06472 11.4699 7.37776 6.82181C13.2945 2.46826 20.0499 0.783899 27.174 0.259264C35.5145 -0.357413 43.7814 -0.0352685 51.7165 3.0113C56.6287 4.90735 60.8589 7.74222 63.6237 12.3719C68.1027 19.8733 66.0936 29.2983 58.9143 34.8484C54.3523 38.3736 49.1083 40.2236 43.5049 41.0336C39.5051 41.6134 35.45 41.7975 33.3395 41.9816V42ZM57.9742 9.20568C57.3199 12.1786 56.1494 13.7893 53.744 15.1884C50.3986 17.1304 46.7213 18.0416 42.952 18.5847C40.823 18.8884 40.823 18.8056 40.8322 21.0054C40.8507 25.3773 40.4636 29.7401 38.7771 33.7899C37.8462 36.0265 36.2426 37.987 35.0169 39.9475C42.1317 40.2788 50.2511 37.7017 55.5043 32.9155C60.739 28.1294 62.9878 22.1559 61.4118 15.0595C60.9234 12.8597 59.9925 10.8348 57.9834 9.20568H57.9742ZM8.12426 9.50021L7.67267 9.2609C6.87087 10.4758 5.82023 11.5988 5.30413 12.9334C3.02775 18.8516 3.96779 24.4477 7.52521 29.5836C11.5066 35.3178 17.368 38.0238 24.0221 39.248C26.3261 39.6714 28.6854 39.8278 31.2383 40.1408C25.3584 33.9096 25.3492 26.4082 25.1003 18.9529C24.2709 18.8148 23.5336 18.7043 22.7963 18.5755C19.1928 17.9404 15.6262 17.1673 12.419 15.2896C10.1795 13.9734 8.41918 12.2799 8.12426 9.50021ZM34.1874 1.9068C38.6112 5.19268 39.5604 9.74872 40.4636 14.5901C43.0257 14.0378 45.4956 13.6789 47.8549 12.9518C49.5876 12.4179 51.311 11.5803 52.804 10.5495C54.6011 9.30692 54.5643 7.53053 52.9146 6.16832C52.1128 5.51482 51.1912 4.94417 50.2327 4.54839C45.256 2.47746 39.9936 2.00805 34.1782 1.9068H34.1874ZM31.1092 2.08168L30.9526 1.61227C27.2385 2.14611 23.4783 2.50507 19.8195 3.28742C17.6722 3.74763 15.534 4.66804 13.6263 5.78174C11.1932 7.20838 11.2393 9.28852 13.5802 10.8716C17.1653 13.2923 21.3217 13.8722 25.5519 14.4428C26.4735 9.80395 27.3399 5.28472 31.1185 2.07248L31.1092 2.08168ZM27.6809 19.2474C27.644 23.6378 27.9942 27.8256 30.5102 31.4889C31.9203 33.5506 33.8833 33.523 35.2196 31.4245C36.1412 29.9702 36.9338 28.3871 37.4684 26.7488C38.2609 24.3465 38.5466 21.8245 38.2609 19.2382H27.6809V19.2474ZM27.9758 14.6821H38.1504C37.2472 12.0958 36.6573 9.63827 35.109 7.58575C33.7358 5.77254 32.0862 5.76333 30.63 7.53973C28.9895 9.54623 28.5195 12.0037 27.9758 14.6821Z" fill="white"/>
</svg>
