<svg width="43" height="42" viewBox="0 0 43 42" fill="none" xmlns="http://www.w3.org/2000/svg">
<path d="M21.4142 41.9978C10.3238 42.1674 -0.0549873 32.724 0.000219254 20.9848C0.0554258 9.42138 10.0907 -0.167389 21.6841 0.00221601C34.0013 0.183936 42.9754 9.56675 43 21.1908C43.0245 32.7482 33.4063 41.9978 21.4203 41.9978H21.4142ZM22.1074 2.5887C22.3834 4.56339 22.6226 6.34425 22.8864 8.12511C23.3894 11.5717 23.8862 15.0184 24.4506 18.4529C24.5303 18.9375 24.8922 19.4826 25.2848 19.7915C28.1985 22.0752 31.1612 24.3043 34.0994 26.5576C35.4305 27.5752 36.7432 28.6171 38.1663 29.7316C41.1352 23.6743 41.2027 17.7745 37.9516 12.0321C34.5656 6.0535 29.1493 3.15809 22.1135 2.5887H22.1074ZM4.98107 29.7195C5.33071 29.4893 5.4718 29.4106 5.60061 29.3076C9.69203 26.1033 13.8018 22.9171 17.8565 19.6704C18.2552 19.3554 18.4944 18.7012 18.5803 18.1682C19.2121 14.2794 19.7887 10.3784 20.3714 6.48357C20.5554 5.23576 20.6965 3.98189 20.8683 2.60687C12.9676 3.12175 7.49604 7.05296 4.24499 13.7645C1.69322 19.0283 2.04286 24.4315 4.98107 29.7195ZM5.64355 30.7553C9.58775 36.4735 14.8998 39.5142 21.7577 39.3992C28.4254 39.2901 33.7437 36.4432 37.5038 30.8038C37.1603 30.6281 36.9395 30.4827 36.6941 30.3919C31.9832 28.5807 27.2661 26.7878 22.5735 24.9403C21.7945 24.6314 21.1504 24.6314 20.396 24.9403C16.9793 26.3092 13.5381 27.6358 10.1091 28.9805C8.66764 29.5439 7.23227 30.1254 5.64355 30.7614V30.7553Z" fill="white"/>
</svg>
