<svg width="57" height="42" viewBox="0 0 57 42" fill="none" xmlns="http://www.w3.org/2000/svg">
<path d="M40.7784 3.75422C41.9785 1.88788 41.6356 1.96696 43.6073 2.83687C48.6571 5.05907 52.9277 8.17489 55.3903 13.418C57.4945 17.902 57.3776 22.4729 55.9514 27.0518C55.5306 28.412 54.65 29.6298 53.933 30.8872C53.5044 31.6385 52.8654 31.9627 51.938 31.9548C42.376 31.9074 32.8061 31.9548 23.244 31.8678C20.9373 31.8441 18.4903 31.8046 16.7291 29.9303C16.0277 29.1791 15.3964 28.1194 15.264 27.1308C15.0146 25.2091 15.4978 23.3903 16.7057 21.7295C20.7425 16.1701 24.7091 10.5553 28.6602 4.92463C29.1122 4.28406 29.2525 3.42207 29.5408 2.66289C28.7849 2.52054 28.0134 2.18839 27.273 2.25166C21.5529 2.72615 16.0433 3.96774 11.3596 7.55806C6.17727 11.528 3.51984 16.7711 4.50956 23.4456C5.36679 29.2107 8.67105 33.402 13.604 36.2253C17.2044 38.2893 21.2101 39.088 25.278 39.349C30.624 39.689 35.9701 39.5862 41.0044 37.3957C42.8591 36.589 44.6671 35.5847 46.3192 34.4143C47.3323 33.6946 48.2753 33.3704 49.452 33.4495C50.208 33.4969 50.9639 33.4574 51.9146 33.7342C50.9093 34.5883 49.982 35.5452 48.8909 36.2727C40.5991 41.7926 31.4267 42.7891 21.8569 41.4921C16.8927 40.8199 12.2403 39.262 8.09436 36.2885C1.72744 31.7176 -1.28067 24.3471 0.511729 16.8106C1.97682 10.666 5.95127 6.443 11.4142 3.67513C17.5863 0.551398 24.226 -0.310595 31.0371 0.0927225C33.3516 0.227162 35.6506 0.63048 37.9417 1.01007C39.8666 1.3264 40.1316 1.97487 38.9938 3.57233C36.3363 7.28918 33.5854 10.9349 30.9358 14.6596C29.0109 17.3721 27.1951 20.1716 25.3326 22.9316C25.1689 23.1767 25.0053 23.4377 24.865 23.6987C23.4934 26.1581 24.1402 27.3285 26.9068 27.3285C34.5673 27.3364 42.2279 27.3048 49.8962 27.3602C50.9873 27.3602 51.5094 26.9331 51.8835 25.9921C53.9175 20.9229 53.2161 16.1068 50.3638 11.6308C48.2597 8.31724 45.1347 6.10295 41.7369 4.26825C41.4408 4.11008 41.1524 3.95192 40.7706 3.74631L40.7784 3.75422Z" fill="white"/>
</svg>
